HIERARCHY
ROOT Hips
{
	OFFSET 0.000000 0.000000 0.000000 
	CHANNELS 6 Xposition Yposition Zposition Yrotation Zrotation Xrotation 
	JOINT Lumbar
	{
		OFFSET 0.000000 0.000000 0.000000 
		CHANNELS 3 Zrotation Xrotation Yrotation
		JOINT Neck
		{
			OFFSET 0.000000 0.445665 0.000000 
			CHANNELS 3 Zrotation Xrotation Yrotation
			End Site
			{
				OFFSET 0.000000 0.227535 0.000000 
			}
		}
		JOINT RightShoulder
		{
			OFFSET 0.019635 0.377685 0.194865 
			CHANNELS 3 Zrotation Xrotation Yrotation
			JOINT RightElbow
			{
				OFFSET 0.000000 -0.243375 0.000000 
				CHANNELS 2 Zrotation Yrotation
				JOINT RightWrist
				{
					OFFSET 0.000000 -0.264825 0.000000 
					CHANNELS 2 Zrotation Xrotation
					End Site
					{
						OFFSET 0.006600 -0.176220 0.000990 
					}
				}
			}
		}
		JOINT LeftShoulder
		{
			OFFSET 0.019635 0.377685 -0.194865 
			CHANNELS 3 Zrotation Xrotation Yrotation
			JOINT LeftElbow
			{
				OFFSET 0.000000 -0.243375 0.000000 
				CHANNELS 2 Zrotation Yrotation
				JOINT LeftWrist
				{
					OFFSET 0.000000 -0.264825 0.000000 
					CHANNELS 2 Zrotation Xrotation
					End Site
					{
						OFFSET 0.006600 -0.176220 -0.000990 
					}
				}
			}
		}
	}
	JOINT RightHip
	{
		OFFSET 0.052140 -0.069960 0.075570 
		CHANNELS 3 Zrotation Xrotation Yrotation
		JOINT RightKnee
		{
			OFFSET 0.000000 -0.402270 0.000000 
			CHANNELS 1 Zrotation
			JOINT RightAnkle
			{
				OFFSET 0.000000 -0.404085 0.000000 
				CHANNELS 3 Zrotation Xrotation Yrotation
				End Site
				{
					OFFSET 0.204105 -0.089430 0.008415 
				}
			}
		}
	}
	JOINT LeftHip
	{
		OFFSET 0.052140 -0.069960 -0.075570 
		CHANNELS 3 Zrotation Xrotation Yrotation
		JOINT LeftKnee
		{
			OFFSET 0.000000 -0.402270 0.000000 
			CHANNELS 1 Zrotation
			JOINT LeftAnkle
			{
				OFFSET 0.000000 -0.404085 0.000000 
				CHANNELS 3 Zrotation Xrotation Yrotation
				End Site
				{
					OFFSET 0.204105 -0.089430 -0.008415 
				}
			}
		}
	}
}
MOTION
Frames: 20
Frame Time: 0.02
-1e-05 -1e-05 -7e-05 22.23227 -24.22988 -6.70109 42.7435 2.95678 -4.26164 -12.06417 -1.8857 -1.03818 81.81411 -91.27066 -87.1034 5.7871 59.51944 -14.58758 2.41904 60.03895 97.59987 -55.63182 5.80281 -94.26056 13.17875 0.28229 39.21523 -4.97825 -6.02612 -22.63429 -6.72814 -2.536 -3.46092 42.63483 11.00734 4.95348 -27.7476 -6.53396 2.16374 3.28128
6e-05 -0 -6e-05 22.23091 -24.23623 -6.70209 42.75129 2.95263 -4.25716 -12.06284 -1.88832 -1.03881 81.60894 -91.27505 -87.11736 5.7871 59.44375 -14.60994 2.4393 60.33932 97.59114 -55.63183 5.80169 -94.32402 13.2242 0.22035 39.21696 -4.99182 -6.11203 -22.6341 -6.72544 -2.52496 -3.4562 42.63911 11.01124 4.95656 -27.74749 -6.53399 2.16509 3.28239
0.00012 0 -5e-05 22.22955 -24.24256 -6.70309 42.75907 2.94849 -4.25269 -12.06151 -1.89093 -1.03943 81.40768 -91.28076 -87.09528 5.7871 59.38114 -14.62529 2.45987 60.63897 97.58245 -55.63184 5.80057 -94.38738 13.26954 0.15856 39.21867 -5.00541 -6.19796 -22.63392 -6.72275 -2.51392 -3.45148 42.64337 11.01514 4.95968 -27.74738 -6.53403 2.16643 3.28351
0.00018 1e-05 -3e-05 22.22819 -24.24888 -6.70408 42.76684 2.94436 -4.24823 -12.06019 -1.89354 -1.04005 81.20378 -91.2854 -87.1022 5.7871 59.30817 -14.64623 2.48014 60.93846 97.57375 -55.63185 5.79945 -94.45067 13.31486 0.0968 39.22039 -5.01895 -6.28366 -22.63373 -6.72006 -2.50291 -3.44677 42.64763 11.01903 4.96276 -27.74727 -6.53406 2.16778 3.28462
0.00025 2e-05 -2e-05 22.22683 -24.25523 -6.70508 42.77463 2.94021 -4.24376 -12.05885 -1.89615 -1.04068 80.99442 -91.2881 -87.16185 5.7871 59.21619 -14.67738 2.49993 61.23855 97.56501 -55.63186 5.79833 -94.51402 13.36028 0.03489 39.22213 -5.03246 -6.36923 -22.63355 -6.71737 -2.4919 -3.44207 42.65192 11.02291 4.96578 -27.74716 -6.5341 2.16913 3.28574
0.00031 3e-05 -1e-05 22.22548 -24.26151 -6.70607 42.78236 2.93609 -4.23929 -12.05755 -1.89875 -1.0413 80.80999 -91.30005 -86.97009 5.7871 59.21454 -14.65995 2.52211 61.53725 97.55641 -55.63188 5.79722 -94.5774 13.40544 -0.02664 39.22376 -5.0462 -6.45589 -22.63336 -6.71467 -2.4808 -3.43731 42.65612 11.02685 4.9691 -27.74705 -6.53413 2.17046 3.28685
0.00037 4e-05 0 22.2241 -24.26793 -6.70707 42.79019 2.93193 -4.23483 -12.05619 -1.90136 -1.04193 80.5765 -91.2937 -87.27529 5.7871 59.03439 -14.73853 2.53955 61.83847 97.54754 -55.63189 5.79609 -94.64066 13.45108 -0.08886 39.22562 -5.05947 -6.5403 -22.63318 -6.71199 -2.46989 -3.43266 42.66049 11.03067 4.97183 -27.74695 -6.53417 2.17182 3.28798
0.00044 5e-05 2e-05 22.22275 -24.27422 -6.70807 42.79794 2.9278 -4.23036 -12.05488 -1.90397 -1.04255 80.38661 -91.30362 -87.13888 5.7871 59.01288 -14.73179 2.56118 62.13729 97.53892 -55.6319 5.79497 -94.704 13.49627 -0.15043 39.22728 -5.07316 -6.6267 -22.63299 -6.7093 -2.45882 -3.42792 42.66471 11.03459 4.97509 -27.74684 -6.5342 2.17316 3.28909
0.0005 6e-05 3e-05 22.22143 -24.28034 -6.70905 42.80557 2.92369 -4.22587 -12.05363 -1.90659 -1.04315 80.25705 -91.33609 -86.39 5.7871 59.21128 -14.60674 2.58873 62.43365 97.53058 -55.63191 5.79388 -94.76763 13.54097 -0.2113 39.22866 -5.08744 -6.71596 -22.63279 -6.70656 -2.44751 -3.42304 42.66871 11.03866 4.97906 -27.74672 -6.53423 2.17447 3.29016
0.00056 7e-05 4e-05 22.21994 -24.28738 -6.7101 42.81385 2.91945 -4.22147 -12.05204 -1.90918 -1.04383 79.80158 -91.24686 -88.94589 5.7871 58.22278 -15.12014 2.58466 62.74558 97.52057 -55.63192 5.79267 -94.83014 13.58865 -0.27648 39.23152 -5.09856 -6.79009 -22.63266 -6.70401 -2.43742 -3.41888 42.6739 11.04197 4.97911 -27.74665 -6.53429 2.17593 3.29141
0.00063 8e-05 5e-05 22.2188 -24.29253 -6.711 42.82079 2.91551 -4.21689 -12.05115 -1.91181 -1.04436 80.01981 -91.40911 -84.67333 5.7871 59.68694 -14.31427 2.64568 63.02373 97.51413 -55.63193 5.7917 -94.89467 13.62993 -0.3324 39.23132 -5.1162 -6.89525 -22.63238 -6.70109 -2.42485 -3.41326 42.6766 11.04684 4.98732 -27.74648 -6.53429 2.17707 3.2923
0.00069 9e-05 4e-05 22.21861 -24.29203 -6.71146 42.82359 2.91229 -4.21173 -12.05245 -1.9146 -1.04446 82.22149 -92.3124 -60.27389 5.78708 68.37817 -9.62075 2.90062 63.21613 97.51728 -55.63194 5.79135 -94.96747 13.6545 -0.36401 39.22218 -5.15326 -7.09376 -22.63163 -6.69695 -2.40469 -3.40318 42.67208 11.05641 5.01901 -27.74597 -6.53417 2.17746 3.29223
0.00074 9e-05 3e-05 22.21879 -24.28971 -6.71177 42.82513 2.90941 -4.2064 -12.05441 -1.91741 -1.04441 85.07548 -93.45897 -29.26943 5.78705 79.44221 -3.65099 3.21819 63.37333 97.52404 -55.63194 5.79122 -95.04176 13.67248 -0.38614 39.21007 -5.19661 -7.32196 -22.63073 -6.69246 -2.38217 -3.39171 42.66512 11.06748 5.05863 -27.74536 -6.53399 2.17753 3.2918
0.0008 0.0001 1e-05 22.21882 -24.28851 -6.71214 42.82757 2.90645 -4.2012 -12.05591 -1.9202 -1.04444 87.54198 -94.4607 -2.20113 5.78703 89.09364 1.5588 3.49696 63.54207 97.52931 -55.63195 5.791 -95.11357 13.69292 -0.41189 39.19969 -5.23609 -7.53116 -22.62992 -6.68823 -2.36126 -3.38116 42.65953 11.07761 5.09393 -27.74482 -6.53384 2.17766 3.29149
0.00086 0.0001 0 22.21874 -24.28606 -6.71253 42.82864 2.90314 -4.19579 -12.0581 -1.92307 -1.04442 90.39096 -95.60686 28.80336 5.78701 100.15302 7.52669 3.81907 63.72949 97.53405 -55.63195 5.79076 -95.19303 13.71558 -0.44048 39.18772 -5.27981 -7.76346 -22.62901 -6.68357 -2.33809 -3.36939 42.65284 11.08886 5.13243 -27.74422 -6.53369 2.17811 3.29134
0.00092 0.00011 -2e-05 22.21899 -24.28578 -6.71286 42.83224 2.90066 -4.19079 -12.05898 -1.92575 -1.04446 92.60191 -96.51081 53.20275 5.78699 108.85237 12.22345 4.06629 63.86974 97.54066 -55.63196 5.7906 -95.25688 13.73208 -0.46095 39.17831 -5.31625 -7.95495 -22.62826 -6.67972 -2.31905 -3.35982 42.64784 11.09807 5.16593 -27.7437 -6.53353 2.17785 3.2908
0.00098 0.00012 -5e-05 22.22009 -24.29209 -6.71303 42.84331 2.90037 -4.18692 -12.05626 -1.92807 -1.0447 92.85419 -96.67713 57.47509 5.78697 110.35568 13.04535 4.08653 63.88802 97.55222 -55.63196 5.79057 -95.2777 13.73296 -0.46118 39.17706 -5.33058 -8.0239 -22.62805 -6.67826 -2.31228 -3.35683 42.64835 11.10169 5.18556 -27.74344 -6.53334 2.17561 3.28915
0.00104 0.00013 -0.0001 22.22151 -24.30062 -6.71314 42.85695 2.90089 -4.1835 -12.05214 -1.93017 -1.045 92.4486 -96.59288 54.9189 5.78695 109.41896 12.55297 4.03014 63.86028 97.56539 -55.63195 5.7906 -95.28274 13.7279 -0.45363 39.17843 -5.33743 -8.0511 -22.62801 -6.67762 -2.3097 -3.35608 42.65061 11.10312 5.19954 -27.74327 -6.53314 2.1727 3.28715
0.0011 0.00015 -0.00014 22.22276 -24.30803 -6.7133 42.86928 2.90105 -4.17991 -12.04854 -1.93228 -1.04527 92.36841 -96.62948 55.66751 5.78694 109.66406 12.69681 4.01199 63.85363 97.5774 -55.63195 5.79061 -95.29465 13.72569 -0.44974 39.17835 -5.34807 -8.09926 -22.62787 -6.67657 -2.30498 -3.35418 42.65193 11.10528 5.21489 -27.74305 -6.53294 2.17018 3.28538
0.00116 0.00016 -0.00018 22.22412 -24.31582 -6.71338 42.88215 2.9012 -4.17617 -12.0455 -1.93479 -1.04555 92.19944 -96.64548 55.80366 5.78692 109.68681 12.72236 3.98156 63.84434 97.59142 -55.63195 5.79062 -95.30764 13.72262 -0.44492 39.1792 -5.35743 -8.14062 -22.62782 -6.67566 -2.30111 -3.35273 42.65378 11.10862 5.23558 -27.74285 -6.53274 2.16728 3.2833
